<svg width="36" height="35" viewBox="0 0 36 35" fill="none" xmlns="http://www.w3.org/2000/svg">
<path d="M24.9782 35H11.0218C4.94423 35 0 30.1932 0 24.2845V10.7155C0 4.80683 4.94423 0 11.0218 0H24.9782C31.0558 0 36 4.80683 36 10.7155V24.2845C36.0005 30.1927 31.0562 35 24.9782 35ZM11.0218 2.62083C6.43091 2.62083 2.69575 6.25219 2.69575 10.7155V24.2845C2.69575 28.7478 6.43091 32.3792 11.0218 32.3792H24.9782C29.5696 32.3792 33.3047 28.7478 33.3047 24.2845V10.7155C33.3047 6.25219 29.5696 2.62083 24.9782 2.62083H11.0218Z" fill="white"/>
<path d="M17.4998 26C12.8128 26 9 22.1869 9 17.5C9 12.8131 12.8128 9 17.4998 9C22.1868 9 26 12.8131 26 17.5C26 22.1869 22.1868 26 17.4998 26ZM17.4998 11.5768C14.2336 11.5768 11.5765 14.2339 11.5765 17.5004C11.5765 20.7665 14.2336 23.4236 17.4998 23.4236C20.7659 23.4236 23.4231 20.7665 23.4231 17.5004C23.4231 14.2339 20.7659 11.5768 17.4998 11.5768Z" fill="white"/>
<path d="M30 8C30 9.10467 29.1047 10 28 10C26.8953 10 26 9.10467 26 8C26 6.89533 26.8953 6 28 6C29.1047 6 30 6.89533 30 8Z" fill="white"/>
</svg>
