<svg width="30" height="22" viewBox="0 0 30 22" fill="none" xmlns="http://www.w3.org/2000/svg">
<path d="M2.86045 7.02202C2.30845 7.02202 1.77645 6.95802 1.26445 6.83002C0.760453 6.69402 0.360453 6.52602 0.0644531 6.32602L0.688453 4.98202C0.984453 5.16602 1.33245 5.31802 1.73245 5.43802C2.14045 5.55002 2.54045 5.60602 2.93245 5.60602C3.36445 5.60602 3.66845 5.55402 3.84445 5.45002C4.02845 5.34602 4.12045 5.20202 4.12045 5.01802C4.12045 4.86602 4.04845 4.75402 3.90445 4.68202C3.76845 4.60202 3.58445 4.54202 3.35245 4.50202C3.12045 4.46202 2.86445 4.42202 2.58445 4.38202C2.31245 4.34202 2.03645 4.29002 1.75645 4.22602C1.47645 4.15402 1.22045 4.05002 0.988453 3.91402C0.756453 3.77802 0.568453 3.59402 0.424453 3.36202C0.288453 3.13002 0.220453 2.83002 0.220453 2.46202C0.220453 2.05402 0.336453 1.69402 0.568453 1.38202C0.808453 1.07002 1.15245 0.826023 1.60045 0.650023C2.04845 0.466023 2.58445 0.374023 3.20845 0.374023C3.64845 0.374023 4.09645 0.422023 4.55245 0.518023C5.00845 0.614023 5.38845 0.754023 5.69245 0.938023L5.06845 2.27002C4.75645 2.08602 4.44045 1.96202 4.12045 1.89802C3.80845 1.82602 3.50445 1.79002 3.20845 1.79002C2.79245 1.79002 2.48845 1.84602 2.29645 1.95802C2.10445 2.07002 2.00845 2.21402 2.00845 2.39002C2.00845 2.55002 2.07645 2.67002 2.21245 2.75002C2.35645 2.83002 2.54445 2.89402 2.77645 2.94202C3.00845 2.99002 3.26045 3.03402 3.53245 3.07402C3.81245 3.10602 4.09245 3.15802 4.37245 3.23002C4.65245 3.30202 4.90445 3.40602 5.12845 3.54202C5.36045 3.67002 5.54845 3.85002 5.69245 4.08202C5.83645 4.30602 5.90845 4.60202 5.90845 4.97002C5.90845 5.37002 5.78845 5.72602 5.54845 6.03802C5.30845 6.34202 4.96045 6.58202 4.50445 6.75802C4.05645 6.93402 3.50845 7.02202 2.86045 7.02202Z" fill="#888888"/>
<path d="M9.17545 7.02202C8.48745 7.02202 7.87545 6.87802 7.33945 6.59002C6.81145 6.30202 6.39145 5.91002 6.07945 5.41402C5.77545 4.91002 5.62345 4.33802 5.62345 3.69802C5.62345 3.05002 5.77545 2.47802 6.07945 1.98202C6.39145 1.47802 6.81145 1.08602 7.33945 0.806023C7.87545 0.518023 8.48745 0.374023 9.17545 0.374023C9.85545 0.374023 10.4635 0.518023 10.9995 0.806023C11.5355 1.08602 11.9555 1.47402 12.2595 1.97002C12.5635 2.46602 12.7155 3.04202 12.7155 3.69802C12.7155 4.33802 12.5635 4.91002 12.2595 5.41402C11.9555 5.91002 11.5355 6.30202 10.9995 6.59002C10.4635 6.87802 9.85545 7.02202 9.17545 7.02202ZM9.17545 5.48602C9.48745 5.48602 9.76745 5.41402 10.0155 5.27002C10.2635 5.12602 10.4595 4.92202 10.6035 4.65802C10.7475 4.38602 10.8195 4.06602 10.8195 3.69802C10.8195 3.32202 10.7475 3.00202 10.6035 2.73802C10.4595 2.47402 10.2635 2.27002 10.0155 2.12602C9.76745 1.98202 9.48745 1.91002 9.17545 1.91002C8.86345 1.91002 8.58345 1.98202 8.33545 2.12602C8.08745 2.27002 7.88745 2.47402 7.73545 2.73802C7.59145 3.00202 7.51945 3.32202 7.51945 3.69802C7.51945 4.06602 7.59145 4.38602 7.73545 4.65802C7.88745 4.92202 8.08745 5.12602 8.33545 5.27002C8.58345 5.41402 8.86345 5.48602 9.17545 5.48602Z" fill="#888888"/>
<path d="M16.0787 7.02202C15.3907 7.02202 14.7787 6.87802 14.2427 6.59002C13.7147 6.30202 13.2947 5.91002 12.9827 5.41402C12.6787 4.91002 12.5267 4.33802 12.5267 3.69802C12.5267 3.05002 12.6787 2.47802 12.9827 1.98202C13.2947 1.47802 13.7147 1.08602 14.2427 0.806023C14.7787 0.518023 15.3907 0.374023 16.0787 0.374023C16.7587 0.374023 17.3667 0.518023 17.9027 0.806023C18.4387 1.08602 18.8587 1.47402 19.1627 1.97002C19.4667 2.46602 19.6187 3.04202 19.6187 3.69802C19.6187 4.33802 19.4667 4.91002 19.1627 5.41402C18.8587 5.91002 18.4387 6.30202 17.9027 6.59002C17.3667 6.87802 16.7587 7.02202 16.0787 7.02202ZM16.0787 5.48602C16.3907 5.48602 16.6707 5.41402 16.9187 5.27002C17.1667 5.12602 17.3627 4.92202 17.5067 4.65802C17.6507 4.38602 17.7227 4.06602 17.7227 3.69802C17.7227 3.32202 17.6507 3.00202 17.5067 2.73802C17.3627 2.47402 17.1667 2.27002 16.9187 2.12602C16.6707 1.98202 16.3907 1.91002 16.0787 1.91002C15.7667 1.91002 15.4867 1.98202 15.2387 2.12602C14.9907 2.27002 14.7907 2.47402 14.6387 2.73802C14.4947 3.00202 14.4227 3.32202 14.4227 3.69802C14.4227 4.06602 14.4947 4.38602 14.6387 4.65802C14.7907 4.92202 14.9907 5.12602 15.2387 5.27002C15.4867 5.41402 15.7667 5.48602 16.0787 5.48602Z" fill="#888888"/>
<path d="M23.834 0.374023C24.346 0.374023 24.802 0.478023 25.202 0.686023C25.61 0.886023 25.93 1.19802 26.162 1.62202C26.394 2.03802 26.51 2.57402 26.51 3.23002V6.92602H24.638V3.51802C24.638 2.99802 24.522 2.61402 24.29 2.36602C24.066 2.11802 23.746 1.99402 23.33 1.99402C23.034 1.99402 22.766 2.05802 22.526 2.18602C22.294 2.30602 22.11 2.49402 21.974 2.75002C21.846 3.00602 21.782 3.33402 21.782 3.73402V6.92602H19.91V0.470023H21.698V2.25802L21.362 1.71802C21.594 1.28602 21.926 0.954023 22.358 0.722023C22.79 0.490023 23.282 0.374023 23.834 0.374023Z" fill="#888888"/>
<path d="M6.03623 14.0962C5.48423 14.0962 4.95223 14.0322 4.44023 13.9042C3.93623 13.7682 3.53623 13.6002 3.24023 13.4002L3.86423 12.0562C4.16023 12.2402 4.50823 12.3922 4.90823 12.5122C5.31623 12.6242 5.71623 12.6802 6.10823 12.6802C6.54023 12.6802 6.84423 12.6282 7.02023 12.5242C7.20423 12.4202 7.29623 12.2762 7.29623 12.0922C7.29623 11.9402 7.22423 11.8282 7.08023 11.7562C6.94423 11.6762 6.76023 11.6162 6.52823 11.5762C6.29623 11.5362 6.04023 11.4962 5.76023 11.4562C5.48823 11.4162 5.21223 11.3642 4.93223 11.3002C4.65223 11.2282 4.39623 11.1242 4.16423 10.9882C3.93223 10.8522 3.74423 10.6682 3.60023 10.4362C3.46423 10.2042 3.39623 9.90424 3.39623 9.53624C3.39623 9.12824 3.51223 8.76824 3.74423 8.45624C3.98423 8.14424 4.32823 7.90024 4.77623 7.72424C5.22423 7.54024 5.76023 7.44824 6.38423 7.44824C6.82423 7.44824 7.27223 7.49624 7.72823 7.59224C8.18423 7.68824 8.56423 7.82824 8.86823 8.01224L8.24423 9.34424C7.93223 9.16024 7.61623 9.03624 7.29623 8.97224C6.98423 8.90024 6.68023 8.86424 6.38423 8.86424C5.96823 8.86424 5.66423 8.92024 5.47223 9.03224C5.28023 9.14424 5.18423 9.28824 5.18423 9.46424C5.18423 9.62424 5.25223 9.74424 5.38823 9.82424C5.53223 9.90424 5.72023 9.96824 5.95223 10.0162C6.18423 10.0642 6.43623 10.1082 6.70823 10.1482C6.98823 10.1802 7.26823 10.2322 7.54823 10.3042C7.82823 10.3762 8.08023 10.4802 8.30423 10.6162C8.53623 10.7442 8.72423 10.9242 8.86823 11.1562C9.01223 11.3802 9.08423 11.6762 9.08423 12.0442C9.08423 12.4442 8.96423 12.8002 8.72423 13.1122C8.48423 13.4162 8.13623 13.6562 7.68023 13.8322C7.23223 14.0082 6.68423 14.0962 6.03623 14.0962Z" fill="#888888"/>
<path d="M12.3512 14.0962C11.6632 14.0962 11.0512 13.9522 10.5152 13.6642C9.98723 13.3762 9.56723 12.9842 9.25523 12.4882C8.95123 11.9842 8.79923 11.4122 8.79923 10.7722C8.79923 10.1242 8.95123 9.55224 9.25523 9.05624C9.56723 8.55224 9.98723 8.16024 10.5152 7.88024C11.0512 7.59224 11.6632 7.44824 12.3512 7.44824C13.0312 7.44824 13.6392 7.59224 14.1752 7.88024C14.7112 8.16024 15.1312 8.54824 15.4352 9.04424C15.7392 9.54024 15.8912 10.1162 15.8912 10.7722C15.8912 11.4122 15.7392 11.9842 15.4352 12.4882C15.1312 12.9842 14.7112 13.3762 14.1752 13.6642C13.6392 13.9522 13.0312 14.0962 12.3512 14.0962ZM12.3512 12.5602C12.6632 12.5602 12.9432 12.4882 13.1912 12.3442C13.4392 12.2002 13.6352 11.9962 13.7792 11.7322C13.9232 11.4602 13.9952 11.1402 13.9952 10.7722C13.9952 10.3962 13.9232 10.0762 13.7792 9.81224C13.6352 9.54824 13.4392 9.34424 13.1912 9.20024C12.9432 9.05624 12.6632 8.98424 12.3512 8.98424C12.0392 8.98424 11.7592 9.05624 11.5112 9.20024C11.2632 9.34424 11.0632 9.54824 10.9112 9.81224C10.7672 10.0762 10.6952 10.3962 10.6952 10.7722C10.6952 11.1402 10.7672 11.4602 10.9112 11.7322C11.0632 11.9962 11.2632 12.2002 11.5112 12.3442C11.7592 12.4882 12.0392 12.5602 12.3512 12.5602Z" fill="#888888"/>
<path d="M19.2545 14.0962C18.5665 14.0962 17.9545 13.9522 17.4185 13.6642C16.8905 13.3762 16.4705 12.9842 16.1585 12.4882C15.8545 11.9842 15.7025 11.4122 15.7025 10.7722C15.7025 10.1242 15.8545 9.55224 16.1585 9.05624C16.4705 8.55224 16.8905 8.16024 17.4185 7.88024C17.9545 7.59224 18.5665 7.44824 19.2545 7.44824C19.9345 7.44824 20.5425 7.59224 21.0785 7.88024C21.6145 8.16024 22.0345 8.54824 22.3385 9.04424C22.6425 9.54024 22.7945 10.1162 22.7945 10.7722C22.7945 11.4122 22.6425 11.9842 22.3385 12.4882C22.0345 12.9842 21.6145 13.3762 21.0785 13.6642C20.5425 13.9522 19.9345 14.0962 19.2545 14.0962ZM19.2545 12.5602C19.5665 12.5602 19.8465 12.4882 20.0945 12.3442C20.3425 12.2002 20.5385 11.9962 20.6825 11.7322C20.8265 11.4602 20.8985 11.1402 20.8985 10.7722C20.8985 10.3962 20.8265 10.0762 20.6825 9.81224C20.5385 9.54824 20.3425 9.34424 20.0945 9.20024C19.8465 9.05624 19.5665 8.98424 19.2545 8.98424C18.9425 8.98424 18.6625 9.05624 18.4145 9.20024C18.1665 9.34424 17.9665 9.54824 17.8145 9.81224C17.6705 10.0762 17.5985 10.3962 17.5985 10.7722C17.5985 11.1402 17.6705 11.4602 17.8145 11.7322C17.9665 11.9962 18.1665 12.2002 18.4145 12.3442C18.6625 12.4882 18.9425 12.5602 19.2545 12.5602Z" fill="#888888"/>
<path d="M27.0098 7.44824C27.5218 7.44824 27.9778 7.55224 28.3778 7.76024C28.7858 7.96024 29.1058 8.27224 29.3378 8.69624C29.5698 9.11224 29.6858 9.64824 29.6858 10.3042V14.0002H27.8138V10.5922C27.8138 10.0722 27.6978 9.68824 27.4658 9.44024C27.2418 9.19224 26.9218 9.06824 26.5058 9.06824C26.2098 9.06824 25.9418 9.13224 25.7018 9.26024C25.4698 9.38024 25.2858 9.56824 25.1498 9.82424C25.0218 10.0802 24.9578 10.4082 24.9578 10.8082V14.0002H23.0858V7.54424H24.8738V9.33224L24.5378 8.79224C24.7698 8.36024 25.1018 8.02824 25.5338 7.79624C25.9658 7.56424 26.4578 7.44824 27.0098 7.44824Z" fill="#888888"/>
<path d="M3.03623 21.0962C2.48423 21.0962 1.95223 21.0322 1.44023 20.9042C0.936234 20.7682 0.536234 20.6002 0.240234 20.4002L0.864234 19.0562C1.16023 19.2402 1.50823 19.3922 1.90823 19.5122C2.31623 19.6242 2.71623 19.6802 3.10823 19.6802C3.54023 19.6802 3.84423 19.6282 4.02023 19.5242C4.20423 19.4202 4.29623 19.2762 4.29623 19.0922C4.29623 18.9402 4.22423 18.8282 4.08023 18.7562C3.94423 18.6762 3.76023 18.6162 3.52823 18.5762C3.29623 18.5362 3.04023 18.4962 2.76023 18.4562C2.48823 18.4162 2.21223 18.3642 1.93223 18.3002C1.65223 18.2282 1.39623 18.1242 1.16423 17.9882C0.932234 17.8522 0.744234 17.6682 0.600234 17.4362C0.464234 17.2042 0.396234 16.9042 0.396234 16.5362C0.396234 16.1282 0.512234 15.7682 0.744234 15.4562C0.984234 15.1442 1.32823 14.9002 1.77623 14.7242C2.22423 14.5402 2.76023 14.4482 3.38423 14.4482C3.82423 14.4482 4.27223 14.4962 4.72823 14.5922C5.18423 14.6882 5.56423 14.8282 5.86823 15.0122L5.24423 16.3442C4.93223 16.1602 4.61623 16.0362 4.29623 15.9722C3.98423 15.9002 3.68023 15.8642 3.38423 15.8642C2.96823 15.8642 2.66423 15.9202 2.47223 16.0322C2.28023 16.1442 2.18423 16.2882 2.18423 16.4642C2.18423 16.6242 2.25223 16.7442 2.38823 16.8242C2.53223 16.9042 2.72023 16.9682 2.95223 17.0162C3.18423 17.0642 3.43623 17.1082 3.70823 17.1482C3.98823 17.1802 4.26823 17.2322 4.54823 17.3042C4.82823 17.3762 5.08023 17.4802 5.30423 17.6162C5.53623 17.7442 5.72423 17.9242 5.86823 18.1562C6.01223 18.3802 6.08423 18.6762 6.08423 19.0442C6.08423 19.4442 5.96423 19.8002 5.72423 20.1122C5.48423 20.4162 5.13623 20.6562 4.68023 20.8322C4.23223 21.0082 3.68423 21.0962 3.03623 21.0962Z" fill="#888888"/>
<path d="M9.35123 21.0962C8.66323 21.0962 8.05123 20.9522 7.51523 20.6642C6.98723 20.3762 6.56723 19.9842 6.25523 19.4882C5.95123 18.9842 5.79923 18.4122 5.79923 17.7722C5.79923 17.1242 5.95123 16.5522 6.25523 16.0562C6.56723 15.5522 6.98723 15.1602 7.51523 14.8802C8.05123 14.5922 8.66323 14.4482 9.35123 14.4482C10.0312 14.4482 10.6392 14.5922 11.1752 14.8802C11.7112 15.1602 12.1312 15.5482 12.4352 16.0442C12.7392 16.5402 12.8912 17.1162 12.8912 17.7722C12.8912 18.4122 12.7392 18.9842 12.4352 19.4882C12.1312 19.9842 11.7112 20.3762 11.1752 20.6642C10.6392 20.9522 10.0312 21.0962 9.35123 21.0962ZM9.35123 19.5602C9.66323 19.5602 9.94323 19.4882 10.1912 19.3442C10.4392 19.2002 10.6352 18.9962 10.7792 18.7322C10.9232 18.4602 10.9952 18.1402 10.9952 17.7722C10.9952 17.3962 10.9232 17.0762 10.7792 16.8122C10.6352 16.5482 10.4392 16.3442 10.1912 16.2002C9.94323 16.0562 9.66323 15.9842 9.35123 15.9842C9.03923 15.9842 8.75923 16.0562 8.51123 16.2002C8.26323 16.3442 8.06323 16.5482 7.91123 16.8122C7.76723 17.0762 7.69523 17.3962 7.69523 17.7722C7.69523 18.1402 7.76723 18.4602 7.91123 18.7322C8.06323 18.9962 8.26323 19.2002 8.51123 19.3442C8.75923 19.4882 9.03923 19.5602 9.35123 19.5602Z" fill="#888888"/>
<path d="M16.2545 21.0962C15.5665 21.0962 14.9545 20.9522 14.4185 20.6642C13.8905 20.3762 13.4705 19.9842 13.1585 19.4882C12.8545 18.9842 12.7025 18.4122 12.7025 17.7722C12.7025 17.1242 12.8545 16.5522 13.1585 16.0562C13.4705 15.5522 13.8905 15.1602 14.4185 14.8802C14.9545 14.5922 15.5665 14.4482 16.2545 14.4482C16.9345 14.4482 17.5425 14.5922 18.0785 14.8802C18.6145 15.1602 19.0345 15.5482 19.3385 16.0442C19.6425 16.5402 19.7945 17.1162 19.7945 17.7722C19.7945 18.4122 19.6425 18.9842 19.3385 19.4882C19.0345 19.9842 18.6145 20.3762 18.0785 20.6642C17.5425 20.9522 16.9345 21.0962 16.2545 21.0962ZM16.2545 19.5602C16.5665 19.5602 16.8465 19.4882 17.0945 19.3442C17.3425 19.2002 17.5385 18.9962 17.6825 18.7322C17.8265 18.4602 17.8985 18.1402 17.8985 17.7722C17.8985 17.3962 17.8265 17.0762 17.6825 16.8122C17.5385 16.5482 17.3425 16.3442 17.0945 16.2002C16.8465 16.0562 16.5665 15.9842 16.2545 15.9842C15.9425 15.9842 15.6625 16.0562 15.4145 16.2002C15.1665 16.3442 14.9665 16.5482 14.8145 16.8122C14.6705 17.0762 14.5985 17.3962 14.5985 17.7722C14.5985 18.1402 14.6705 18.4602 14.8145 18.7322C14.9665 18.9962 15.1665 19.2002 15.4145 19.3442C15.6625 19.4882 15.9425 19.5602 16.2545 19.5602Z" fill="#888888"/>
<path d="M24.0098 14.4482C24.5218 14.4482 24.9778 14.5522 25.3778 14.7602C25.7858 14.9602 26.1058 15.2722 26.3378 15.6962C26.5698 16.1122 26.6858 16.6482 26.6858 17.3042V21.0002H24.8138V17.5922C24.8138 17.0722 24.6978 16.6882 24.4658 16.4402C24.2418 16.1922 23.9218 16.0682 23.5058 16.0682C23.2098 16.0682 22.9418 16.1322 22.7018 16.2602C22.4698 16.3802 22.2858 16.5682 22.1498 16.8242C22.0218 17.0802 21.9578 17.4082 21.9578 17.8082V21.0002H20.0858V14.5442H21.8738V16.3322L21.5378 15.7922C21.7698 15.3602 22.1018 15.0282 22.5338 14.7962C22.9658 14.5642 23.4578 14.4482 24.0098 14.4482Z" fill="#888888"/>
</svg>
