<svg width="31" height="34" viewBox="0 0 31 34" fill="none" xmlns="http://www.w3.org/2000/svg">
<path d="M27.1423 7.27163C26.9022 7.15429 26.6656 7.02392 26.4393 6.88051C25.7775 6.46331 25.1705 5.97441 24.6321 5.42032C23.2845 3.9536 22.7804 2.46408 22.5953 1.42434H22.6021C22.4478 0.56061 22.5095 0 22.5198 0H16.3748V22.5776C16.3748 22.8807 16.3748 23.1806 16.3611 23.4772C16.3611 23.513 16.3577 23.5489 16.3543 23.588C16.3543 23.6043 16.3543 23.6206 16.3508 23.6369V23.6499C16.2205 25.2959 15.2364 26.7691 13.7276 27.584C12.9526 28.0044 12.0782 28.2228 11.1866 28.2228C8.3233 28.2228 6.00522 26.0032 6.00522 23.2653C6.00522 20.5274 8.3233 18.3078 11.1866 18.3078C11.7284 18.3078 12.2668 18.3893 12.7811 18.549L12.788 12.6039C9.62636 12.2161 6.43729 13.1026 3.99576 15.0485C2.93617 15.922 2.04803 16.965 1.36564 18.1318C1.10503 18.5555 0.12773 20.2634 0.00771079 23.0372C-0.0677296 24.6114 0.429491 26.2411 0.6661 26.9125V26.9256C0.813551 27.3232 1.39307 28.6758 2.33265 29.8166C3.09048 30.7325 3.98891 31.5376 4.99364 32.2025V32.1894L5.00735 32.2025C7.98039 34.1222 11.2792 33.9984 11.2792 33.9984C11.8484 33.9756 13.7619 33.9984 15.9325 33.0206C18.3397 31.9352 19.7114 30.3218 19.7114 30.3218C20.5858 29.3571 21.2853 28.2554 21.7723 27.069C22.3278 25.6805 22.513 24.015 22.513 23.3468V11.3686C22.5884 11.411 23.5794 12.0336 23.5794 12.0336C23.5794 12.0336 25.0093 12.9038 27.2417 13.4709C28.8431 13.8751 31 13.9598 31 13.9598V8.1647C30.2456 8.24292 28.7094 8.01477 27.1388 7.27163H27.1423Z" fill="#fff"/>
</svg>
